<svg width="22" height="22" viewBox="0 0 22 22" fill="none" xmlns="http://www.w3.org/2000/svg">
<path d="M7.14999 1.83333H14.85C17.7833 1.83333 20.1667 4.21667 20.1667 7.15V14.85C20.1667 16.2601 19.6065 17.6124 18.6094 18.6094C17.6124 19.6065 16.2601 20.1667 14.85 20.1667H7.14999C4.21666 20.1667 1.83333 17.7833 1.83333 14.85V7.15C1.83333 5.73993 2.39348 4.38762 3.39054 3.39055C4.38761 2.39348 5.73993 1.83333 7.14999 1.83333ZM6.96666 3.66667C6.09145 3.66667 5.25208 4.01434 4.63321 4.63321C4.01434 5.25208 3.66666 6.09145 3.66666 6.96667V15.0333C3.66666 16.8575 5.14249 18.3333 6.96666 18.3333H15.0333C15.9085 18.3333 16.7479 17.9857 17.3668 17.3668C17.9857 16.7479 18.3333 15.9085 18.3333 15.0333V6.96667C18.3333 5.1425 16.8575 3.66667 15.0333 3.66667H6.96666ZM15.8125 5.04167C16.1164 5.04167 16.4078 5.16239 16.6227 5.37727C16.8376 5.59216 16.9583 5.8836 16.9583 6.1875C16.9583 6.49139 16.8376 6.78284 16.6227 6.99773C16.4078 7.21261 16.1164 7.33333 15.8125 7.33333C15.5086 7.33333 15.2172 7.21261 15.0023 6.99773C14.7874 6.78284 14.6667 6.49139 14.6667 6.1875C14.6667 5.8836 14.7874 5.59216 15.0023 5.37727C15.2172 5.16239 15.5086 5.04167 15.8125 5.04167ZM11 6.41667C12.2156 6.41667 13.3814 6.89955 14.2409 7.75909C15.1004 8.61863 15.5833 9.78442 15.5833 11C15.5833 12.2156 15.1004 13.3814 14.2409 14.2409C13.3814 15.1004 12.2156 15.5833 11 15.5833C9.78442 15.5833 8.61863 15.1004 7.75909 14.2409C6.89955 13.3814 6.41666 12.2156 6.41666 11C6.41666 9.78442 6.89955 8.61863 7.75909 7.75909C8.61863 6.89955 9.78442 6.41667 11 6.41667ZM11 8.25C10.2706 8.25 9.57118 8.53973 9.05545 9.05545C8.53973 9.57118 8.24999 10.2707 8.24999 11C8.24999 11.7293 8.53973 12.4288 9.05545 12.9445C9.57118 13.4603 10.2706 13.75 11 13.75C11.7293 13.75 12.4288 13.4603 12.9445 12.9445C13.4603 12.4288 13.75 11.7293 13.75 11C13.75 10.2707 13.4603 9.57118 12.9445 9.05545C12.4288 8.53973 11.7293 8.25 11 8.25Z" fill="#95000B"/>
</svg>
