<svg width="27" height="27" viewBox="0 0 27 27" fill="none" xmlns="http://www.w3.org/2000/svg">
<path fill-rule="evenodd" clip-rule="evenodd" d="M5.0625 9.75586C5.0625 5.26359 8.88164 1.6875 13.5 1.6875C18.1184 1.6875 21.9375 5.26359 21.9375 9.75586C21.9375 12.2884 20.5682 15.4217 19.0682 18.13C17.5458 20.8789 15.7925 23.3554 14.8522 24.6252C14.697 24.8373 14.4942 25.0099 14.2599 25.1291C14.0245 25.249 13.7641 25.3114 13.5 25.3114C13.2359 25.3114 12.9755 25.249 12.7401 25.1291C12.5058 25.0099 12.3029 24.8373 12.1478 24.6251C11.2075 23.3548 9.45419 20.8774 7.93174 18.1282C6.43184 15.4197 5.0625 12.2866 5.0625 9.75586ZM13.5 3.375C9.7336 3.375 6.75 6.27363 6.75 9.75586C6.75 11.813 7.91191 14.6091 9.40799 17.3106C10.8775 19.9642 12.5796 22.3717 13.5 23.6156C14.4204 22.3723 16.1225 19.9657 17.592 17.3124C19.088 14.6113 20.25 11.8149 20.25 9.75586C20.25 6.27363 17.2664 3.375 13.5 3.375Z" fill="#95000B"/>
<path fill-rule="evenodd" clip-rule="evenodd" d="M13.5 8.4375C12.568 8.4375 11.8125 9.19302 11.8125 10.125C11.8125 11.057 12.568 11.8125 13.5 11.8125C14.432 11.8125 15.1875 11.057 15.1875 10.125C15.1875 9.19302 14.432 8.4375 13.5 8.4375ZM10.125 10.125C10.125 8.26104 11.636 6.75 13.5 6.75C15.364 6.75 16.875 8.26104 16.875 10.125C16.875 11.989 15.364 13.5 13.5 13.5C11.636 13.5 10.125 11.989 10.125 10.125Z" fill="#95000B"/>
</svg>
