<svg width="21" height="22" viewBox="0 0 21 22" fill="none" xmlns="http://www.w3.org/2000/svg">
<path d="M3.5 18.3333C3.01875 18.3333 2.60692 18.154 2.2645 17.7952C1.92208 17.4365 1.75058 17.0048 1.75 16.5V5.5C1.75 4.99583 1.9215 4.56439 2.2645 4.20567C2.6075 3.84694 3.01933 3.66728 3.5 3.66667H17.5C17.9813 3.66667 18.3934 3.84633 18.7364 4.20567C19.0794 4.565 19.2506 4.99644 19.25 5.5V16.5C19.25 17.0042 19.0788 17.4359 18.7364 17.7952C18.394 18.1546 17.9818 18.3339 17.5 18.3333H3.5ZM10.5 11.9167L3.5 7.33333V16.5H17.5V7.33333L10.5 11.9167ZM10.5 10.0833L17.5 5.5H3.5L10.5 10.0833ZM3.5 7.33333V5.5V16.5V7.33333Z" fill="#95000B"/>
</svg>
