<svg width="25" height="25" viewBox="0 0 25 25" fill="none" xmlns="http://www.w3.org/2000/svg">
<path d="M13.75 14.375V18.125C13.75 18.2908 13.8158 18.4497 13.9331 18.5669C14.0503 18.6842 14.2092 18.75 14.375 18.75H18.125C18.2908 18.75 18.4497 18.6842 18.5669 18.5669C18.6842 18.4497 18.75 18.2908 18.75 18.125V14.375C18.75 14.2092 18.6842 14.0503 18.5669 13.9331C18.4497 13.8158 18.2908 13.75 18.125 13.75H14.375C14.2092 13.75 14.0503 13.8158 13.9331 13.9331C13.8158 14.0503 13.75 14.2092 13.75 14.375ZM15 17.5V15H17.5V17.5H15ZM6.25 2.5C6.15839 2.50003 6.06791 2.52021 5.98496 2.55909C5.90202 2.59797 5.82863 2.65461 5.77 2.725L2.645 6.475C2.55137 6.58727 2.50007 6.72881 2.5 6.875V8.75C2.5 9.86 2.9825 10.8588 3.75 11.545V21.875C3.75 22.0408 3.81585 22.1997 3.93306 22.3169C4.05027 22.4342 4.20924 22.5 4.375 22.5H20.625C20.7908 22.5 20.9497 22.4342 21.0669 22.3169C21.1842 22.1997 21.25 22.0408 21.25 21.875V11.545C22.0175 10.8575 22.5 9.86 22.5 8.75V6.8525C22.5 6.74 22.5 6.65 22.355 6.475L19.23 2.725C19.1714 2.65461 19.098 2.59797 19.015 2.55909C18.9321 2.52021 18.8416 2.50003 18.75 2.5H6.25ZM6.25 11.25C5.58696 11.25 4.95107 10.9866 4.48223 10.5178C4.01339 10.0489 3.75 9.41304 3.75 8.75V7.5H8.75V8.75C8.75 9.41304 8.48661 10.0489 8.01777 10.5178C7.54893 10.9866 6.91304 11.25 6.25 11.25ZM12.5 11.25C11.837 11.25 11.2011 10.9866 10.7322 10.5178C10.2634 10.0489 10 9.41304 10 8.75V7.5H15V8.75C15 9.41304 14.7366 10.0489 14.2678 10.5178C13.7989 10.9866 13.163 11.25 12.5 11.25ZM18.75 11.25C18.087 11.25 17.4511 10.9866 16.9822 10.5178C16.5134 10.0489 16.25 9.41304 16.25 8.75V7.5H21.25V8.75C21.25 9.41304 20.9866 10.0489 20.5178 10.5178C20.0489 10.9866 19.413 11.25 18.75 11.25ZM6.25 21.25H5V12.2875C5.78787 12.5668 6.64652 12.5745 7.4393 12.3095C8.23208 12.0445 8.91345 11.5219 9.375 10.825C9.71707 11.3405 10.1815 11.7633 10.7268 12.0556C11.2721 12.3479 11.8813 12.5006 12.5 12.5C13.1188 12.5004 13.7281 12.3476 14.2734 12.0551C14.8187 11.7625 15.2831 11.3395 15.625 10.8238C16.0865 11.5207 16.7679 12.0432 17.5607 12.3082C18.3535 12.5733 19.2121 12.5655 20 12.2863V21.25H12.5V14.375C12.5 14.2092 12.4342 14.0503 12.3169 13.9331C12.1997 13.8158 12.0408 13.75 11.875 13.75H6.875C6.70924 13.75 6.55027 13.8158 6.43306 13.9331C6.31585 14.0503 6.25 14.2092 6.25 14.375V21.25ZM8.925 6.25H4.46L6.5425 3.75H9.7575L8.925 6.25ZM14.7575 6.25H10.2425L11.075 3.75H13.925L14.7575 6.25ZM16.075 6.25L15.2425 3.75H18.4575L20.5413 6.25H16.075ZM7.5 21.25V15H11.25V21.25H7.5Z" fill="#DD0616"/>
</svg>
