<svg width="23" height="23" viewBox="0 0 23 23" fill="none" xmlns="http://www.w3.org/2000/svg">
<path d="M18.2563 4.70542C17.3777 3.81793 16.3311 3.11427 15.1777 2.63547C14.0243 2.15667 12.7872 1.91232 11.5383 1.91667C6.30583 1.91667 2.04125 6.18125 2.04125 11.4138C2.04125 13.0908 2.48208 14.72 3.30625 16.1575L1.96458 21.0833L6.99583 19.7608C8.38542 20.5179 9.9475 20.9204 11.5383 20.9204C16.7708 20.9204 21.0354 16.6558 21.0354 11.4233C21.0354 8.88375 20.0483 6.4975 18.2563 4.70542ZM11.5383 19.3104C10.12 19.3104 8.73042 18.9271 7.51333 18.2083L7.22583 18.0358L4.23583 18.8217L5.03125 15.9083L4.83958 15.6113C4.05159 14.3529 3.63318 12.8984 3.63208 11.4138C3.63208 7.06292 7.17792 3.51708 11.5288 3.51708C13.6371 3.51708 15.6208 4.34125 17.1063 5.83625C17.8418 6.56838 18.4246 7.43922 18.8211 8.39828C19.2175 9.35735 19.4197 10.3856 19.4158 11.4233C19.435 15.7742 15.8892 19.3104 11.5383 19.3104ZM15.87 13.4071C15.6304 13.2921 14.4613 12.7171 14.2504 12.6308C14.03 12.5542 13.8767 12.5158 13.7138 12.7458C13.5508 12.9854 13.1004 13.5221 12.9663 13.6754C12.8321 13.8383 12.6883 13.8575 12.4488 13.7329C12.2092 13.6179 11.4425 13.3592 10.5417 12.5542C9.8325 11.9217 9.36292 11.1454 9.21917 10.9058C9.085 10.6663 9.2 10.5417 9.32458 10.4171C9.43 10.3117 9.56417 10.1392 9.67917 10.005C9.79417 9.87083 9.84208 9.76542 9.91875 9.61208C9.99542 9.44917 9.95708 9.315 9.89958 9.2C9.84208 9.085 9.36292 7.91583 9.17125 7.43667C8.97958 6.97667 8.77833 7.03417 8.63458 7.02458H8.17458C8.01167 7.02458 7.7625 7.08208 7.54208 7.32167C7.33125 7.56125 6.71792 8.13625 6.71792 9.30542C6.71792 10.4746 7.57083 11.6054 7.68583 11.7588C7.80083 11.9217 9.36292 14.3175 11.7396 15.3429C12.305 15.5921 12.7458 15.7358 13.0908 15.8413C13.6563 16.0233 14.1738 15.9946 14.5858 15.9371C15.0458 15.87 15.9946 15.3621 16.1863 14.8063C16.3875 14.2504 16.3875 13.7808 16.3204 13.6754C16.2533 13.57 16.1096 13.5221 15.87 13.4071Z" fill="#95000B"/>
</svg>
